{"title":"Eagle Eye. 2008 [x264. AC3(5.1)] Multi_Sub.mkv","uid":5406176,"size":1350769476,"categoryP":"video","categoryS":"movies","magnet":"?xt=urn:btih:d3561185f7138dbcbe631933da133872e6062567&amp;dn=Eagle+Eye.+2008+%5Bx264.+AC3%285.1%29%5D+Multi_Sub.mkv&amp;tr=udp%3A%2F%2Ftracker.openbittorrent.com%3A80&amp;tr=udp%3A%2F%2Fopen.demonii.com%3A1337&amp;tr=udp%3A%2F%2Ftracker.coppersurfer.tk%3A6969&amp;tr=udp%3A%2F%2Fexodus.desync.com%3A6969","seeders":0,"leechers":1,"uploader":"Zen_Bud","files":-1,"time":1267605818,"description":"General\nComplete name                    : Eagle Eye.mkv\nFormat                           : Matroska\nFile size                        : 1.26 GiB\nDuration                         : 1h 52mn\nOverall bit rate                 : 1 597 Kbps\n\n\nVideo\nID                               : 1\nFormat                           : AVC\nDuration                         : 1h 52mn\nBit rate                         : 1 118 Kbps\nWidth                            : 720 pixels\nHeight                           : 428 pixels\nDisplay aspect ratio             : 2.35:1\nOriginal display aspect ratio    : 2.35:1\nFrame rate                       : 25.000 fps\nResolution                       : 8 bits\nColorimetry                      : 4:2:0\nScan type                        : Progressive\nBits/(Pixel*Frame)               : 0.145\nStream size                      : 901 MiB (70%)\nWriting library                  : x264 core 79\n\nAudio\nID                               : 2\nFormat                           : AC-3\nFormat/Info                      : Audio Coding 3\nCodec ID                         : A_AC3\nDuration                         : 1h 52mn\nBit rate mode                    : Constant\nBit rate                         : 448 Kbps\nChannel(s)                       : 6 channels\nChannel positions                : Front: L C R, Surround: L R, LFE\nSampling rate                    : 48.0 KHz\nStream size                      : 361 MiB (28%)\nLanguage                         : English\n\nText #1\nLanguage                         : Danish\n\nText #2\nLanguage                         : English\n\nText #3\nLanguage                         : Dutch\n\nText #4\nLanguage                         : Norwegian\n\nText #5\nLanguage                         : Finnish\n\nText #6\nLanguage                         : Swedish\n\nText #7\nLanguage                         : English\n\nMenu\n00:00:00.000                     : Chapter \n\n\n","torrent":{"xt":"urn:btih:d3561185f7138dbcbe631933da133872e6062567","amp;dn":"Eagle+Eye.+2008+%5Bx264.+AC3%285.1%29%5D+Multi_Sub.mkv","amp;tr":["udp%3A%2F%2Ftracker.openbittorrent.com%3A80","udp%3A%2F%2Fopen.demonii.com%3A1337","udp%3A%2F%2Ftracker.coppersurfer.tk%3A6969","udp%3A%2F%2Fexodus.desync.com%3A6969"],"infoHash":"d3561185f7138dbcbe631933da133872e6062567","infoHashBuffer":{"type":"Buffer","data":[211,86,17,133,247,19,141,188,190,99,25,51,218,19,56,114,230,6,37,103]},"announce":[],"urlList":[]}}